# xmcd
#
# Track frame offsets:
#	150
#	14408
#	29534
#	44268
#	58092
#	76164
#	90222
#	106780
#	125123
#	139672
#	157271
#	173262
#	195968
#	209162
#	225540
#	239982
#	252913
#	266987
#
# Disc length: 3729 seconds
#
# Revision: 0
# Processed by: cddbd v1.5.2PL0 Copyright (c) Steve Scherf et al.
# Submitted via: EZCDAudioConverter 7.1.5.1
#
DISCID=f90e8f12
DTITLE=张明敏 - 精选18首
DYEAR=1999
DGENRE=
TTITLE0=我的中国心
TTITLE1=爸爸的草鞋
TTITLE2=龙的传人
TTITLE3=中华民族
TTITLE4=我是中国人
TTITLE5=长城瑶
TTITLE6=一翦梅
TTITLE7=蒙尘的巨龙
TTITLE8=垄上行
TTITLE9=黄河颂
TTITLE10=梦驼铃
TTITLE11=龙的故乡
TTITLE12=年轻人的心声
TTITLE13=乡间的小路
TTITLE14=送你一把泥土
TTITLE15=拜访春天
TTITLE16=又见柳叶青
TTITLE17=毕业生
EXTD=
EXTT0=
EXTT1=
EXTT2=
EXTT3=
EXTT4=
EXTT5=
EXTT6=
EXTT7=
EXTT8=
EXTT9=
EXTT10=
EXTT11=
EXTT12=
EXTT13=
EXTT14=
EXTT15=
EXTT16=
EXTT17=
PLAYORDER=
